<?xml version="1.0" encoding="iso-8859-1"?>
<!-- Generator: Adobe Illustrator 19.0.0, SVG Export Plug-In . SVG Version: 6.00 Build 0)  -->
<svg version="1.1" id="Capa_1" xmlns="http://www.w3.org/2000/svg" xmlns:xlink="http://www.w3.org/1999/xlink" x="0px" y="0px"
	 viewBox="0 0 512 512" style="enable-background:new 0 0 512 512;" xml:space="preserve">
<g>
	<path style="fill:#FFE100;" d="M460.8,418.133H51.2c-9.421,0-17.067-7.646-17.067-17.067V128c0-9.421,7.646-17.067,17.067-17.067
		h409.6c9.421,0,17.067,7.646,17.067,17.067v273.067C477.867,410.487,470.221,418.133,460.8,418.133"/>
	<path style="fill:#FFA800;" d="M460.8,110.933h-25.6c9.421,0,17.067,7.646,17.067,17.067v273.067
		c0,9.421-7.646,17.067-17.067,17.067h25.6c9.421,0,17.067-7.646,17.067-17.067V128C477.867,118.579,470.221,110.933,460.8,110.933"
		/>
	<path style="fill:#FFFFFF;" d="M51.2,110.933h25.6c-9.421,0-17.067,7.646-17.067,17.067v273.067
		c0,9.421,7.646,17.067,17.067,17.067H51.2c-9.421,0-17.067-7.646-17.067-17.067V128C34.133,118.579,41.779,110.933,51.2,110.933"/>
	<path style="fill:#FFE100;" d="M469.333,8.533H42.667c-18.85,0-34.133,15.283-34.133,34.133V179.2
		c0,9.421,7.646,17.067,17.067,17.067h8.533V128c0-9.421,7.646-17.067,17.067-17.067h409.6c9.421,0,17.067,7.646,17.067,17.067
		v68.267h8.533c9.421,0,17.067-7.646,17.067-17.067V42.667C503.467,23.817,488.184,8.533,469.333,8.533"/>
	<path style="fill:#FFA800;" d="M469.333,8.533h-25.6c18.85,0,34.133,15.283,34.133,34.133V128v51.2v17.067h8.533
		c9.421,0,17.067-7.646,17.067-17.067V42.667C503.467,23.817,488.184,8.533,469.333,8.533"/>
	<path style="fill:#FFFFFF;" d="M42.667,8.533h25.6c-18.85,0-34.133,15.283-34.133,34.133V128v51.2v17.067H25.6
		c-9.421,0-17.067-7.646-17.067-17.067V42.667C8.533,23.817,23.817,8.533,42.667,8.533"/>
	<path style="fill:#FFE100;" d="M477.867,366.933v34.133c0,9.421-7.646,17.067-17.067,17.067H51.2
		c-9.421,0-17.067-7.646-17.067-17.067v-34.133H25.6c-9.421,0-17.067,7.646-17.067,17.067v68.267c0,28.271,22.929,51.2,51.2,51.2
		h392.533c28.271,0,51.2-22.929,51.2-51.2V384c0-9.421-7.646-17.067-17.067-17.067H477.867z"/>
	<path style="fill:#FFA800;" d="M486.4,366.933h-8.533V384v17.067v51.2c0,28.271-22.929,51.2-51.2,51.2h25.6
		c28.271,0,51.2-22.929,51.2-51.2V384C503.467,374.579,495.821,366.933,486.4,366.933"/>
	<path style="fill:#FFFFFF;" d="M25.6,366.933h8.533V384v17.067v51.2c0,28.279,22.929,51.2,51.2,51.2h-25.6
		c-28.271,0-51.2-22.929-51.2-51.2V384C8.533,374.579,16.179,366.933,25.6,366.933"/>
	<polygon style="fill:#63D3FD;" points="324.267,230.4 443.733,230.4 443.733,145.067 324.267,145.067 	"/>
	<path style="fill:#FDCC00;" d="M290.133,264.533c0,61.269-49.664,110.933-110.933,110.933S68.267,325.803,68.267,264.533
		S117.931,153.6,179.2,153.6S290.133,203.264,290.133,264.533"/>
	<path style="fill:#63D3FD;" d="M256,264.533c0,42.419-34.381,76.8-76.8,76.8s-76.8-34.381-76.8-76.8s34.381-76.8,76.8-76.8
		S256,222.114,256,264.533"/>
	<path style="fill:#3DB9F9;" d="M179.2,187.733c-4.369,0-8.627,0.452-12.8,1.152c36.309,6.11,64,37.606,64,75.648
		s-27.691,69.538-64,75.648c4.173,0.7,8.431,1.152,12.8,1.152c42.419,0,76.8-34.381,76.8-76.8S221.619,187.733,179.2,187.733"/>
	<g>
		<polygon style="fill:#63D3FD;" points="443.733,76.8 358.4,76.8 375.467,42.667 443.733,42.667 		"/>
		<path style="fill:#63D3FD;" d="M110.933,59.733c0,14.14-11.46,25.6-25.6,25.6s-25.6-11.46-25.6-25.6s11.46-25.6,25.6-25.6
			S110.933,45.594,110.933,59.733"/>
	</g>
	<g>
		<path d="M145.067,264.533c0,4.71-3.823,8.533-8.533,8.533S128,269.244,128,264.533c0-4.71,3.823-8.533,8.533-8.533
			S145.067,259.823,145.067,264.533"/>
		<path d="M366.933,162.133c0,4.71-3.823,8.533-8.533,8.533s-8.533-3.823-8.533-8.533s3.823-8.533,8.533-8.533
			S366.933,157.423,366.933,162.133"/>
		<path d="M435.2,162.133c0,4.71-3.814,8.533-8.533,8.533s-8.533-3.823-8.533-8.533s3.814-8.533,8.533-8.533
			S435.2,157.423,435.2,162.133"/>
		<path d="M401.067,162.133c0,4.71-3.823,8.533-8.533,8.533S384,166.844,384,162.133s3.823-8.533,8.533-8.533
			S401.067,157.423,401.067,162.133"/>
		<path d="M349.867,187.733c0,4.71-3.823,8.533-8.533,8.533s-8.533-3.823-8.533-8.533c0-4.71,3.823-8.533,8.533-8.533
			S349.867,183.023,349.867,187.733"/>
		<path d="M418.133,187.733c0,4.71-3.814,8.533-8.533,8.533c-4.719,0-8.533-3.823-8.533-8.533c0-4.71,3.814-8.533,8.533-8.533
			C414.319,179.2,418.133,183.023,418.133,187.733"/>
		<path d="M384,187.733c0,4.71-3.823,8.533-8.533,8.533c-4.71,0-8.533-3.823-8.533-8.533c0-4.71,3.823-8.533,8.533-8.533
			C380.177,179.2,384,183.023,384,187.733"/>
		<path d="M366.933,213.333c0,4.71-3.823,8.533-8.533,8.533s-8.533-3.823-8.533-8.533s3.823-8.533,8.533-8.533
			S366.933,208.623,366.933,213.333"/>
		<path d="M435.2,213.333c0,4.71-3.814,8.533-8.533,8.533s-8.533-3.823-8.533-8.533s3.814-8.533,8.533-8.533
			S435.2,208.623,435.2,213.333"/>
		<path d="M401.067,213.333c0,4.71-3.823,8.533-8.533,8.533S384,218.044,384,213.333s3.823-8.533,8.533-8.533
			S401.067,208.623,401.067,213.333"/>
		<path d="M51.2,119.467c-4.702,0-8.533,3.831-8.533,8.533v273.067c0,4.702,3.831,8.533,8.533,8.533h409.6
			c4.71,0,8.533-3.831,8.533-8.533V128c0-4.702-3.823-8.533-8.533-8.533H51.2z M460.8,426.667H51.2c-14.114,0-25.6-11.486-25.6-25.6
			V128c0-14.114,11.486-25.6,25.6-25.6h409.6c14.114,0,25.6,11.486,25.6,25.6v273.067C486.4,415.181,474.914,426.667,460.8,426.667
			L460.8,426.667z"/>
		<path d="M51.2,102.4h409.6c14.114,0,25.6,11.486,25.6,25.6v59.733c4.71,0,8.533-3.831,8.533-8.533V42.667
			c0-14.114-11.486-25.6-25.6-25.6H42.667c-14.114,0-25.6,11.486-25.6,25.6V179.2c0,4.702,3.831,8.533,8.533,8.533V128
			C25.6,113.886,37.086,102.4,51.2,102.4L51.2,102.4z M486.4,187.733h0.085H486.4z M486.4,204.8h-8.533
			c-4.719,0-8.533-3.823-8.533-8.533V128c0-4.702-3.823-8.533-8.533-8.533H51.2c-4.702,0-8.533,3.831-8.533,8.533v68.267
			c0,4.71-3.823,8.533-8.533,8.533H25.6C11.486,204.8,0,193.314,0,179.2V42.667C0,19.14,19.14,0,42.667,0h426.667
			C492.86,0,512,19.14,512,42.667V179.2C512,193.314,500.514,204.8,486.4,204.8L486.4,204.8z"/>
		<path d="M25.6,375.467c-4.702,0-8.533,3.831-8.533,8.533v68.267c0,23.526,19.14,42.667,42.667,42.667h392.533
			c23.526,0,42.667-19.14,42.667-42.667V384c0-4.702-3.823-8.533-8.533-8.533v25.6c0,14.114-11.486,25.6-25.6,25.6H51.2
			c-14.114,0-25.6-11.486-25.6-25.6V375.467z M452.267,512H59.733C26.795,512,0,485.205,0,452.267V384
			c0-14.114,11.486-25.6,25.6-25.6h8.533c4.71,0,8.533,3.823,8.533,8.533v34.133c0,4.702,3.831,8.533,8.533,8.533h409.6
			c4.71,0,8.533-3.831,8.533-8.533v-34.133c0-4.71,3.814-8.533,8.533-8.533h8.533c14.114,0,25.6,11.486,25.6,25.6v68.267
			C512,485.205,485.197,512,452.267,512L452.267,512z"/>
		<path d="M372.209,68.267h62.993V51.2h-54.46L372.209,68.267z M443.735,85.333h-85.333c-2.961,0-5.709-1.536-7.262-4.045
			c-1.553-2.517-1.69-5.658-0.375-8.303l17.067-34.133c1.451-2.893,4.403-4.719,7.637-4.719h68.267c4.719,0,8.533,3.823,8.533,8.533
			V76.8C452.268,81.51,448.454,85.333,443.735,85.333L443.735,85.333z"/>
		<path d="M179.2,162.133c-56.465,0-102.4,45.935-102.4,102.4s45.935,102.4,102.4,102.4s102.4-45.935,102.4-102.4
			S235.665,162.133,179.2,162.133 M179.2,384c-65.877,0-119.467-53.589-119.467-119.467S113.323,145.067,179.2,145.067
			s119.467,53.589,119.467,119.467S245.077,384,179.2,384"/>
		<path d="M179.2,196.267c-37.641,0-68.267,30.626-68.267,68.267S141.559,332.8,179.2,332.8s68.267-30.626,68.267-68.267
			S216.841,196.267,179.2,196.267 M179.2,349.867c-47.053,0-85.333-38.281-85.333-85.333S132.147,179.2,179.2,179.2
			s85.333,38.281,85.333,85.333S226.253,349.867,179.2,349.867"/>
		<path d="M145.058,247.462c-1.783,0-3.575-0.555-5.12-1.707c-3.763-2.833-4.523-8.183-1.698-11.955
			c9.779-13.005,24.704-20.471,40.96-20.471c4.71,0,8.533,3.823,8.533,8.533c0,4.719-3.823,8.533-8.533,8.533
			c-10.837,0-20.796,4.975-27.307,13.662C150.212,246.285,147.652,247.462,145.058,247.462"/>
		<path d="M204.8,494.933h102.4V486.4c0-4.702-3.831-8.533-8.533-8.533h-85.333c-4.702,0-8.533,3.831-8.533,8.533V494.933z
			 M315.733,512H196.267c-4.71,0-8.533-3.823-8.533-8.533V486.4c0-14.114,11.486-25.6,25.6-25.6h85.333
			c14.114,0,25.6,11.486,25.6,25.6v17.067C324.267,508.177,320.444,512,315.733,512L315.733,512z"/>
		<path d="M332.8,221.867h102.4V153.6H332.8V221.867z M443.733,238.933H324.267c-4.71,0-8.533-3.823-8.533-8.533v-85.333
			c0-4.71,3.823-8.533,8.533-8.533h119.467c4.719,0,8.533,3.823,8.533,8.533V230.4C452.267,235.11,448.452,238.933,443.733,238.933
			L443.733,238.933z"/>
		<path d="M85.333,42.667c-9.412,0-17.067,7.654-17.067,17.067S75.921,76.8,85.333,76.8S102.4,69.146,102.4,59.733
			S94.746,42.667,85.333,42.667 M85.333,93.867c-18.825,0-34.133-15.309-34.133-34.133S66.509,25.6,85.333,25.6
			s34.133,15.309,34.133,34.133S104.158,93.867,85.333,93.867"/>
	</g>
</g>
<g>
</g>
<g>
</g>
<g>
</g>
<g>
</g>
<g>
</g>
<g>
</g>
<g>
</g>
<g>
</g>
<g>
</g>
<g>
</g>
<g>
</g>
<g>
</g>
<g>
</g>
<g>
</g>
<g>
</g>
</svg>
